<svg width="141" height="117" viewBox="0 0 141 117" fill="none" xmlns="http://www.w3.org/2000/svg">
    <path d="M25.9523 114.548C23.2186 117.281 18.7552 117.301 16.3081 114.309C9.07149 105.458 4.08926 94.9388 1.84503 83.6563C-0.855935 70.0777 0.530299 56.003 5.82843 43.2122C11.1266 30.4213 20.0986 19.4888 31.6101 11.7971C43.1215 4.10543 56.6553 -1.65096e-07 70.5 0C84.3447 1.65096e-07 97.8785 4.10543 109.39 11.7971C120.901 19.4888 129.873 30.4213 135.172 43.2122C140.47 56.003 141.856 70.0777 139.155 83.6563C136.911 94.9388 131.929 105.458 124.692 114.309C122.245 117.301 117.781 117.281 115.048 114.548C112.314 111.814 112.355 107.405 114.726 104.352C120.044 97.5054 123.72 89.4902 125.424 80.9251C127.585 70.0621 126.476 58.8024 122.237 48.5697C117.999 38.3371 110.821 29.5911 101.612 23.4377C92.4028 17.2843 81.5758 14 70.5 14C59.4242 14 48.5972 17.2843 39.3881 23.4377C30.1789 29.5911 23.0013 38.3371 18.7627 48.5697C14.5242 58.8024 13.4153 70.0621 15.576 80.9251C17.2797 89.4902 20.9559 97.5054 26.274 104.352C28.6455 107.405 28.6859 111.814 25.9523 114.548Z"
          fill="#F4F4F4"/>
    <defs>
        <linearGradient id="paint0_linear_465_1013" x1="100.5" y1="156" x2="28.5" y2="111.5"
                        gradientUnits="userSpaceOnUse">
            <stop stop-color="#636AFB" stop-opacity="0.4"/>
            <stop offset="1" stop-color="#636AFB"/>
        </linearGradient>
    </defs>
</svg>
