<svg width="21" height="21" viewBox="0 0 21 21" fill="none" xmlns="http://www.w3.org/2000/svg">
<g clip-path="url(#clip0_337_714)">
<path d="M10.4998 8.68164V12.5544H15.8816C15.6452 13.7998 14.9361 14.8544 13.8724 15.5635L17.1179 18.0817C19.0088 16.3363 20.0997 13.7726 20.0997 10.7272C20.0997 10.0181 20.0361 9.33623 19.9179 8.68175L10.4998 8.68164Z" fill="#383838"/>
<path d="M4.89568 12.4033L4.16371 12.9636L1.57275 14.9818C3.2182 18.2454 6.59068 20.5 10.4997 20.5C13.1997 20.5 15.4633 19.6091 17.1179 18.0818L13.8724 15.5636C12.9815 16.1636 11.8451 16.5273 10.4997 16.5273C7.89976 16.5273 5.69073 14.7728 4.89976 12.4091L4.89568 12.4033Z" fill="#383838"/>
<path d="M1.57265 6.01807C0.890868 7.36347 0.5 8.88167 0.5 10.4998C0.5 12.118 0.890868 13.6362 1.57265 14.9816C1.57265 14.9906 4.89998 12.3998 4.89998 12.3998C4.69998 11.7998 4.58177 11.1634 4.58177 10.4997C4.58177 9.836 4.69998 9.19967 4.89998 8.59968L1.57265 6.01807Z" fill="#383838"/>
<path d="M10.4999 4.48182C11.9727 4.48182 13.2818 4.99089 14.3272 5.97272L17.1908 3.10912C15.4545 1.49097 13.2 0.5 10.4999 0.5C6.59089 0.5 3.2182 2.74545 1.57275 6.01819L4.89998 8.60001C5.69084 6.23635 7.89996 4.48182 10.4999 4.48182Z" fill="#383838"/>
</g>
<defs>
<clipPath id="clip0_337_714">
<rect width="20" height="20" fill="white" transform="translate(0.5 0.5)"/>
</clipPath>
</defs>
</svg>
