<svg width="24" height="24" viewBox="0 0 24 24" fill="none" xmlns="http://www.w3.org/2000/svg">
    <path d="M12 10.398V19.998M12 10.398C12 8.15784 12 7.03773 11.564 6.18208C11.1805 5.42944 10.5686 4.81751 9.81596 4.43402C8.96031 3.99805 7.84021 3.99805 5.6 3.99805H4.6C4.03995 3.99805 3.75992 3.99805 3.54601 4.10704C3.35785 4.20291 3.20487 4.35589 3.10899 4.54406C3 4.75797 3 5.03799 3 5.59805V16.398C3 16.9581 3 17.2381 3.10899 17.452C3.20487 17.6402 3.35785 17.7932 3.54601 17.8891C3.75992 17.998 4.03995 17.998 4.6 17.998H7.54668C8.08687 17.998 8.35696 17.998 8.61814 18.0446C8.84995 18.0859 9.0761 18.1544 9.29191 18.2486C9.53504 18.3547 9.75977 18.5046 10.2092 18.8042L12 19.998M12 10.398C12 8.15784 12 7.03773 12.436 6.18208C12.8195 5.42944 13.4314 4.81751 14.184 4.43402C15.0397 3.99805 16.1598 3.99805 18.4 3.99805H19.4C19.9601 3.99805 20.2401 3.99805 20.454 4.10704C20.6422 4.20291 20.7951 4.35589 20.891 4.54406C21 4.75797 21 5.03799 21 5.59805V16.398C21 16.9581 21 17.2381 20.891 17.452C20.7951 17.6402 20.6422 17.7932 20.454 17.8891C20.2401 17.998 19.9601 17.998 19.4 17.998H16.4533C15.9131 17.998 15.643 17.998 15.3819 18.0446C15.15 18.0859 14.9239 18.1544 14.7081 18.2486C14.465 18.3547 14.2402 18.5046 13.7908 18.8042L12 19.998"
          stroke="#383838" stroke-width="2" stroke-linecap="round" stroke-linejoin="round"/>
</svg>
