<svg width="24" height="24" viewBox="0 0 24 24" fill="none" xmlns="http://www.w3.org/2000/svg">
<path d="M16.6582 9.28467C18.098 10.1845 18.8178 10.6344 19.0647 11.2105C19.2803 11.7135 19.2803 12.283 19.0647 12.7861C18.8178 13.3621 18.098 13.812 16.6582 14.7119L9.896 18.9383C8.29805 19.937 7.49907 20.4363 6.83973 20.3833C6.26501 20.3371 5.73818 20.0451 5.3944 19.5823C5 19.0512 5 18.1091 5 16.2247V7.77186C5 5.88748 5 4.9453 5.3944 4.41427C5.73818 3.95139 6.26501 3.6594 6.83973 3.6132C7.49907 3.56019 8.29805 4.05955 9.896 5.05827L16.6582 9.28467Z" stroke="#383838" stroke-width="2" stroke-linejoin="round"/>
</svg>
