<svg width="14" height="14" viewBox="0 0 14 14" fill="none" xmlns="http://www.w3.org/2000/svg">
<path d="M4.66683 4.66683H4.20016C3.54677 4.66683 3.22007 4.66683 2.97051 4.79399C2.75098 4.90584 2.57251 5.08432 2.46066 5.30384C2.3335 5.5534 2.3335 5.8801 2.3335 6.5335V9.80016C2.3335 10.4536 2.3335 10.7803 2.46066 11.0298C2.57251 11.2493 2.75098 11.4278 2.97051 11.5397C3.22007 11.6668 3.54677 11.6668 4.20016 11.6668H7.46683C8.12022 11.6668 8.44692 11.6668 8.69648 11.5397C8.91601 11.4278 9.09448 11.2493 9.20634 11.0298C9.3335 10.7803 9.3335 10.4536 9.3335 9.80016V9.3335M6.5335 9.3335H9.80016C10.4536 9.3335 10.7803 9.3335 11.0298 9.20634C11.2493 9.09448 11.4278 8.91601 11.5397 8.69648C11.6668 8.44692 11.6668 8.12022 11.6668 7.46683V4.20016C11.6668 3.54677 11.6668 3.22007 11.5397 2.97051C11.4278 2.75098 11.2493 2.57251 11.0298 2.46066C10.7803 2.3335 10.4536 2.3335 9.80016 2.3335H6.5335C5.8801 2.3335 5.5534 2.3335 5.30384 2.46066C5.08432 2.57251 4.90584 2.75098 4.79399 2.97051C4.66683 3.22007 4.66683 3.54677 4.66683 4.20016V7.46683C4.66683 8.12022 4.66683 8.44692 4.79399 8.69648C4.90584 8.91601 5.08432 9.09448 5.30384 9.20634C5.5534 9.3335 5.8801 9.3335 6.5335 9.3335Z" stroke="#383838" stroke-width="1.6" stroke-linecap="round" stroke-linejoin="round"/>
</svg>
