<svg width="18" height="18" viewBox="0 0 18 18" fill="none" xmlns="http://www.w3.org/2000/svg">
    <path d="M11.25 9C11.25 10.2426 10.2426 11.25 9 11.25C7.75736 11.25 6.75 10.2426 6.75 9C6.75 7.75736 7.75736 6.75 9 6.75C10.2426 6.75 11.25 7.75736 11.25 9Z"
          stroke="#383838" stroke-width="1.6" stroke-linecap="round" stroke-linejoin="round"/>
    <path d="M9.67846 2.29503C9.52412 2.25 9.34941 2.25 9 2.25C8.65059 2.25 8.47588 2.25 8.32154 2.29503C8.09563 2.36095 7.89608 2.49606 7.75097 2.68133C7.65184 2.80791 7.58695 2.97012 7.45719 3.29454C7.27065 3.76089 6.75295 4.00103 6.27643 3.84225L5.84834 3.69961C5.54467 3.59838 5.39283 3.54777 5.24397 3.5391C5.02529 3.52636 4.80765 3.57774 4.61776 3.68693C4.48849 3.76126 4.37532 3.87443 4.14897 4.10077C3.90841 4.34133 3.78813 4.46162 3.71172 4.59892C3.59945 4.80063 3.55196 5.032 3.57569 5.26163C3.59184 5.41793 3.65501 5.57587 3.78136 5.89174C3.97924 6.38642 3.78888 6.95159 3.33204 7.22575L3.12391 7.35066C2.80523 7.54186 2.6459 7.63746 2.53016 7.76909C2.42774 7.88557 2.35051 8.02197 2.30332 8.16972C2.25 8.33669 2.25 8.52436 2.25 8.8997C2.25 9.34414 2.25 9.56636 2.32097 9.75658C2.38367 9.92465 2.48566 10.0753 2.61843 10.1959C2.76868 10.3325 2.97296 10.4142 3.3815 10.5776C3.799 10.7446 4.01397 11.2081 3.87177 11.6347L3.71041 12.1188C3.59864 12.4541 3.54276 12.6217 3.53767 12.7864C3.53156 12.9845 3.57787 13.1807 3.6719 13.3551C3.75011 13.5001 3.87508 13.6251 4.125 13.875C4.37492 14.1249 4.49989 14.2499 4.64494 14.3281C4.81935 14.4221 5.0155 14.4684 5.21355 14.4623C5.37827 14.4572 5.54592 14.4014 5.88123 14.2896L6.27646 14.1578C6.75295 13.999 7.27065 14.2391 7.45719 14.7055C7.58695 15.0299 7.65184 15.1921 7.75097 15.3187C7.89608 15.5039 8.09563 15.639 8.32154 15.705C8.47588 15.75 8.65059 15.75 9 15.75C9.34941 15.75 9.52412 15.75 9.67846 15.705C9.90437 15.639 10.1039 15.5039 10.249 15.3187C10.3482 15.1921 10.413 15.0299 10.5428 14.7055C10.7293 14.2391 11.2471 13.9991 11.7235 14.1579L12.1185 14.2896C12.4538 14.4014 12.6214 14.4573 12.7861 14.4624C12.9842 14.4685 13.1803 14.4222 13.3548 14.3282C13.4998 14.2499 13.6248 14.125 13.8747 13.8751C14.1246 13.6251 14.2496 13.5002 14.3278 13.3551C14.4218 13.1807 14.4681 12.9846 14.462 12.7865C14.4569 12.6218 14.401 12.4541 14.2893 12.1188L14.128 11.635C13.9858 11.2083 14.2008 10.7446 14.6185 10.5776C15.027 10.4142 15.2313 10.3325 15.3816 10.1959C15.5143 10.0753 15.6163 9.92465 15.679 9.75658C15.75 9.56636 15.75 9.34414 15.75 8.8997C15.75 8.52436 15.75 8.33669 15.6967 8.16972C15.6495 8.02197 15.5723 7.88557 15.4698 7.76909C15.3541 7.63746 15.1948 7.54186 14.8761 7.35066L14.6677 7.22562C14.2108 6.95151 14.0205 6.38636 14.2183 5.89169C14.3447 5.57582 14.4079 5.41787 14.424 5.26157C14.4477 5.03195 14.4002 4.80058 14.288 4.59886C14.2116 4.46156 14.0913 4.34128 13.8507 4.10072C13.6244 3.87438 13.5112 3.7612 13.3819 3.68687C13.192 3.57768 12.9744 3.5263 12.7557 3.53904C12.6069 3.54771 12.455 3.59833 12.1514 3.69955L11.7235 3.84215C11.2471 4.00098 10.7293 3.76087 10.5428 3.29454C10.413 2.97012 10.3482 2.80791 10.249 2.68133C10.1039 2.49606 9.90437 2.36095 9.67846 2.29503Z"
          stroke="#383838" stroke-width="1.6" stroke-linecap="round" stroke-linejoin="round"/>
</svg>
