<svg width="14" height="14" viewBox="0 0 14 14" fill="none" xmlns="http://www.w3.org/2000/svg">
<path d="M9.04152 3.20889L10.6914 4.8588M7.58333 12.2502H12.25M1.75 12.2504L1.77768 12.0567C1.87563 11.371 1.9246 11.0282 2.036 10.7081C2.13485 10.4241 2.26989 10.1541 2.43778 9.90458C2.62699 9.62342 2.87186 9.37855 3.3616 8.88881L10.1563 2.09415C10.6119 1.63854 11.3506 1.63854 11.8062 2.09415C12.2618 2.54976 12.2618 3.28845 11.8062 3.74407L4.88684 10.6634C4.44255 11.1077 4.2204 11.3298 3.96737 11.5065C3.74277 11.6633 3.50054 11.7932 3.24565 11.8935C2.9585 12.0066 2.65052 12.0687 2.03462 12.193L1.75 12.2504Z" stroke="#383838" stroke-width="1.4" stroke-linecap="round" stroke-linejoin="round"/>
</svg>
