<svg width="24" height="24" viewBox="0 0 24 24" fill="none" xmlns="http://www.w3.org/2000/svg">
    <path d="M18.3282 8.3291L15.8939 5.89479C14.7058 4.70674 14.1118 4.11271 13.4268 3.89014C12.8243 3.69437 12.1752 3.69437 11.5727 3.89014C10.8877 4.11271 10.2937 4.70674 9.10564 5.89479L7.49975 7.50067M3 21.0004L3.04745 20.6683C3.21536 19.4929 3.29932 18.9052 3.49029 18.3565C3.65975 17.8697 3.89124 17.4067 4.17906 16.979C4.50341 16.497 4.92319 16.0772 5.76274 15.2377L17.4107 3.58969C18.1918 2.80865 19.4581 2.80864 20.2392 3.58969C21.0202 4.37074 21.0202 5.63707 20.2392 6.41812L8.37744 18.2798C7.61579 19.0415 7.23497 19.4223 6.8012 19.7252C6.41618 19.994 6.00093 20.2167 5.56398 20.3887C5.07171 20.5824 4.54375 20.6889 3.48793 20.902L3 21.0004Z"
          stroke="#383838" stroke-width="2" stroke-linecap="round" stroke-linejoin="round"/>
</svg>
