<svg width="16" height="16" viewBox="0 0 16 16" fill="none" xmlns="http://www.w3.org/2000/svg">
    <path d="M3.33333 10.6665V13.3332M4 2.6665V5.33317M4.66667 11.9998H2M5.33333 3.99984H2.66667M8.66667 2.6665L9.83522 5.62942C9.9605 5.94706 10.0231 6.10588 10.119 6.2398C10.2041 6.3585 10.308 6.46244 10.4267 6.54746C10.5606 6.64337 10.7194 6.70601 11.0371 6.83128L14 7.99984L11.0371 9.16839C10.7194 9.29367 10.5606 9.35631 10.4267 9.45222C10.308 9.53723 10.2041 9.64117 10.119 9.75988C10.0231 9.8938 9.9605 10.0526 9.83522 10.3703L8.66667 13.3332L7.49811 10.3703C7.37284 10.0526 7.3102 9.8938 7.21429 9.75988C7.12927 9.64117 7.02533 9.53723 6.90663 9.45222C6.77271 9.35631 6.61389 9.29367 6.29625 9.16839L3.33333 7.99984L6.29625 6.83128C6.61389 6.70601 6.77271 6.64337 6.90663 6.54746C7.02533 6.46244 7.12927 6.3585 7.21429 6.2398C7.3102 6.10588 7.37284 5.94706 7.49811 5.62942L8.66667 2.6665Z"
          stroke="black" stroke-width="1.6" stroke-linecap="round" stroke-linejoin="round"/>
</svg>
