<svg width="18" height="18" viewBox="0 0 18 18" fill="none" xmlns="http://www.w3.org/2000/svg">
<path d="M2.25 15.7503L10.5 15.7502V4.49217C10.5 3.46915 10.5 2.95763 10.289 2.60308C10.104 2.29221 9.81285 2.05867 9.46924 1.9455C9.07737 1.81644 8.57803 1.9274 7.57937 2.14932L5.62937 2.58266C4.95878 2.73168 4.62348 2.80619 4.3732 2.9865C4.15244 3.14554 3.97909 3.36164 3.87172 3.61164C3.75 3.89508 3.75 4.23856 3.75 4.92551V15.7503M10.4955 3.75029H11.85C12.6901 3.75029 13.1101 3.75029 13.431 3.91378C13.7132 4.05759 13.9427 4.28707 14.0865 4.56931C14.25 4.89018 14.25 5.31022 14.25 6.15029V15.7503H15.75M8.25 9.00029H8.2575" stroke="#383838" stroke-width="1.6" stroke-linecap="round" stroke-linejoin="round"/>
</svg>
