<svg width="28" height="28" viewBox="0 0 28 28" fill="none" xmlns="http://www.w3.org/2000/svg">
    <rect width="28" height="28" rx="8.97931" fill="url(#paint0_linear_7_1125)"/>
    <path d="M14.2853 9.03199L6.65316 11.0568C6.19208 11.1791 6.18661 11.8315 6.64557 11.9616L14.2777 14.124C14.3615 14.1477 14.4503 14.1476 14.5341 14.1238L19.0853 12.8278L22.128 11.9614C22.5862 11.8309 22.5807 11.1797 22.1204 11.0569L14.5265 9.03214C14.4475 9.01108 14.3643 9.01103 14.2853 9.03199Z"
          fill="white"/>
    <path d="M14.3939 13.9069L20.8517 13.7191" stroke="white" stroke-width="0.469116" stroke-linecap="round"/>
    <path d="M7.85602 16.5365L14.3531 16.9582" stroke="white" stroke-width="0.469116" stroke-linecap="round"/>
    <path d="M14.5304 20.2217L22.5239 17.8961C22.9448 17.7736 22.9827 17.192 22.5811 17.016L21.0433 16.3419C20.9409 16.297 20.8258 16.2901 20.7188 16.3226L14.5347 18.1984C14.4465 18.2252 14.3525 18.2254 14.2642 18.199L7.98057 16.3222C7.87272 16.29 7.75689 16.2976 7.6542 16.3437L6.16543 17.012C5.76713 17.1908 5.80759 17.769 6.22692 17.8906L14.2687 20.2218C14.3542 20.2466 14.4449 20.2466 14.5304 20.2217Z"
          fill="white"/>
    <path d="M14.5232 17.1771L22.441 15.009C22.8724 14.8909 22.9095 14.2935 22.496 14.1229L21.0354 13.5202C20.9378 13.4799 20.8293 13.4738 20.7277 13.5028L14.5273 15.273C14.4438 15.2968 14.3552 15.297 14.2716 15.2735L7.97155 13.5025C7.86915 13.4737 7.76001 13.4806 7.66203 13.5219L6.24956 14.1187C5.8392 14.2921 5.87888 14.8861 6.30865 15.0034L14.2758 17.1772C14.3568 17.1993 14.4422 17.1992 14.5232 17.1771Z"
          fill="white"/>
    <defs>
        <linearGradient id="paint0_linear_7_1125" x1="2.41379" y1="1.28736" x2="29.7348" y2="6.65622"
                        gradientUnits="userSpaceOnUse">
            <stop stop-color="#636AFB"/>
            <stop offset="1" stop-color="#6FDBFA" stop-opacity="0.75"/>
        </linearGradient>
    </defs>
</svg>
